<svg xmlns="http://www.w3.org/2000/svg" viewBox="0 0 1024 1049" role="img" aria-label="Sorabyte"><path fill="#7C3AED" d="M662.416 269.781C656.606 274.282 655.691 276.712 654.522 284.252C647.682 328.37 705.323 344.634 727.358 309.17C731.37 302.501 734.032 294.721 734.808 287.013C738.661 248.749 714.605 211.132 686.953 186.301C599.222 107.518 455.096 92.7167 351.037 145.166C285.946 177.974 242.976 232.653 235.85 305.698C228.836 377.598 265.177 439.683 325.962 476.634C334.674 482.054 343.829 486.446 352.91 491.028C359.361 494.285 373.245 498.183 377.719 501.903C380.826 504.487 378.849 534.412 379.194 539.774C379.349 542.173 376.383 545.05 374.011 544.115C348.395 534.378 322.329 523.54 299.238 508.649C266.148 487.31 236.696 456.964 217.941 422.32C191.044 372.636 187.01 312.488 202.238 258.572C250.178 97.0414 442.978 44.8363 590.745 88.3704C656.702 107.04 722.731 147.745 757.217 208.546C773.548 239.265 782.594 274.912 772.69 308.977C746.421 399.325 616.375 384.5 611.936 290.055C611.552 281.892 609.812 271.402 605.941 264.04C594.777 242.81 567.943 233.075 546.454 226.019C527.678 219.853 508.093 218.366 488.533 218.211C457.054 217.215 429.644 222.979 401.161 236.736C355.055 259.006 329.258 314.482 354.432 361.734C365.42 382.257 391.933 396.606 413.923 402.854C447.041 411.398 482.706 414.542 516.559 416.888C577.022 420.989 640.041 437.095 686.606 477.787C692.051 482.546 698.608 486.915 703.768 491.892C765.5 551.431 791.299 641.49 768.272 724.58C727.832 870.093 564.957 937.003 424.872 912.403C339.121 897.344 256.141 854.328 211.492 776.742C182.647 726.62 177.71 652.564 235.718 620.852C255.442 610.137 278.624 607.723 300.133 614.144C319.258 620.008 335.226 633.309 344.449 651.058C355.002 670.903 352.279 680.747 355.336 701.053C360.362 734.439 392.307 754.516 422.152 763.987C430.085 766.504 438.614 767.605 446.7 769.731C447.133 767.979 447.723 766.722 448.644 765.175C450.869 767.047 453.071 768.952 455.408 770.684L456.104 771.07C463.836 775.397 470.841 780.457 478.948 784.257C506.454 797.152 539.151 799.269 568.34 791.354C575.412 789.494 582.285 786.943 588.859 783.74C593.694 781.385 598.497 778.534 603.548 776.69C603.215 777.024 603.172 777.079 602.754 777.427C597.097 782.142 590.35 786.126 583.931 789.755C545.194 811.659 498.429 817.867 454.659 812.582C415.977 807.912 374.57 794.235 345.781 766.965C339.503 761.019 334.29 754.047 328.964 747.264C317.983 753.629 301.797 755.436 289.543 752.471C276.144 749.34 264.586 740.916 257.503 729.121C250.321 717.047 248.649 702.646 252.245 689.103C254.392 681.016 258.582 675.448 265.781 671.273C272.289 669.391 278.844 668.798 285.077 672.081C289.568 674.445 292.634 678.534 293.996 683.387C294.985 686.911 294.869 690.104 294.407 693.667C292.808 697.828 292.218 701.283 291.593 705.647C294.857 711.341 301.194 717.193 306.664 711.104C315.552 701.213 314.985 676.143 305.535 666.458C303.563 664.437 299.239 662.475 297.882 660.478L298.511 659.245L298.041 658.55C296.438 657.961 295.71 658.385 294.159 658.843C289.052 654.978 291.071 654.679 284.108 654.721C279.762 654.748 280.908 651.037 272.377 652.515C267.664 651.9 261.043 653.173 257.227 655.958C254.204 657.947 248.773 660.742 246.339 663.239C219.631 690.637 233.559 737.521 252.921 765.648C331.011 879.088 504.938 907.2 622.462 841.861C630.405 837.445 638.637 832.111 646.15 827.061C690.213 797.244 720.786 751.3 731.273 699.143C739.502 656.117 733.214 611.576 713.394 572.508C674.728 497.594 594.315 460.589 512.82 457.525C506.061 457.271 498.7 455.688 491.895 455.336C432.86 452.289 360.506 442.087 323.181 390.695C305.195 365.932 300.267 327.602 306.009 297.702C313.104 261.774 334.291 230.182 364.838 209.978C434.182 163.196 559.424 164.876 625.52 220.606C630.026 224.405 633.499 229.987 637.645 234.222C654.915 225.619 671.458 223.152 689.186 232.133C702.511 238.883 713.33 253.289 716.148 267.974C718.734 281.446 716.601 301.713 702.379 308.102C692.915 312.345 678.345 310.094 674.012 299.409C670.518 290.769 674.24 284.571 675.402 276.432C673.629 272.724 673.228 271.715 669.974 269.021C667.57 269.28 664.797 269.654 662.416 269.781Z"/><path fill="#ffffff" d="M448.644 765.175L448.093 764.654C444.171 760.999 439.789 757.972 436.034 754.061C414.193 731.312 399.595 700.452 398.073 668.809C397.202 650.725 397.741 632.351 397.808 614.24L398.147 521.905C398.163 514.226 397.132 463.49 398.399 459.867C404.45 459.089 416.854 464.222 423.361 465.576C428.487 466.643 434.54 466.388 439.406 468.073C442.563 473.597 441.001 532.216 440.958 543.194C440.938 548.179 439.798 556.519 441.4 561.105C445.413 560.251 448.232 555.524 451.319 553.052C459.715 546.332 469.139 541.414 478.503 536.248L478.472 474.89C479.827 473.932 481.199 473.003 482.458 471.919C484.723 472.588 486.989 473.277 489.346 473.525C495.089 474.127 518.159 473.266 520.892 477.856C525.151 485.008 518.802 523.442 524.158 524.886C528.636 526.093 534.996 524.726 539.718 524.913C543.922 525.08 548.243 525.715 552.414 526.277C587.958 531.356 619.991 550.449 641.364 579.297C662.539 607.667 672.738 644.371 667.49 679.591C661.554 719.428 640.196 749.79 608.269 773.241C606.701 774.399 605.128 775.549 603.548 776.69C598.497 778.534 593.694 781.385 588.859 783.74C582.285 786.943 575.412 789.494 568.34 791.354C539.151 799.269 506.454 797.152 478.948 784.257C470.841 780.457 463.836 775.397 456.104 771.07L455.408 770.684C453.071 768.952 450.869 767.047 448.644 765.175ZM539.65 752.713C590.455 749.24 628.836 705.263 625.401 654.461C621.966 603.658 578.013 565.248 527.203 568.645C476.34 572.046 437.876 616.051 441.315 666.907C444.754 717.762 488.792 756.19 539.65 752.713Z"/><path fill="#ffffff" d="M479.066 235.736C488.882 234.873 506.781 236.359 516.506 238.146C518.487 238.51 519.742 239.053 520.866 240.828C521.743 242.213 521.881 243.49 521.935 245.094C523.106 280.265 522.019 315.779 522.118 350.995L522.397 380.436C522.458 386.307 523.263 393.321 521.942 399.024C508.579 399.043 494.705 397.021 481.367 395.827C480.498 394.279 479.552 392.773 478.629 391.256C478.131 379.672 478.527 367.915 478.526 356.312L478.525 290.447C478.523 280.812 477.386 241.608 479.066 235.736Z"/><path fill="#ffffff" d="M437.649 241.689L438.984 241.806C439.704 242.369 440.039 242.738 440.394 243.609C440.991 245.079 441.062 247.074 441.11 248.661C441.355 256.643 441.049 264.742 441.051 272.739L441.074 326.815L441.117 363.114C441.122 370.164 441.435 377.405 440.885 384.431C440.718 386.572 439.915 388.344 439.027 390.269C428.797 388.047 419.177 385.692 409.349 382.038C405.561 380.736 401.862 379.221 398.395 377.208C397.512 370.41 397.861 363.275 397.824 356.424C397.73 343.357 397.738 330.29 397.85 317.223L397.858 283.011C397.816 276.908 397.37 270.546 397.739 264.466C397.852 262.609 398.297 260.999 398.909 259.249C411.158 251.079 423.812 246.344 437.649 241.689Z"/></svg>
