<svg xmlns="http://www.w3.org/2000/svg" viewBox="0 0 240 240" role="img" aria-label="Sorabyte">
  <g fill="none" stroke="#7C3AED" stroke-width="16" stroke-linecap="round" stroke-linejoin="round">
    <path d="M 178,78 C 178,52 152,40 122,40 C 88,40 60,60 60,90 C 60,118 96,124 128,126 C 162,128 180,142 180,166 C 180,192 150,202 118,202 C 90,202 66,192 60,170"/>
    <path d="M 178,78 C 192,72 198,58 188,52 C 180,48 174,56 178,64"/>
    <path d="M 60,170 C 46,176 40,190 50,196 C 58,200 64,192 60,184"/>
  </g>
  <g fill="#ffffff">
    <rect x="104" y="66" width="7" height="92" rx="2"/>
    <rect x="121" y="66" width="7" height="92" rx="2"/>
  </g>
  <circle cx="116" cy="158" r="22" fill="none" stroke="#ffffff" stroke-width="9"/>
</svg>
