<svg xmlns="http://www.w3.org/2000/svg" viewBox="0 0 240 240" role="img" aria-label="Sorabyte">
  <g fill="none" stroke="#7C3AED" stroke-width="16" stroke-linecap="round" stroke-linejoin="round">
    <path d="M 182,76 C 182,50 156,38 124,38 C 88,38 58,60 58,90 C 58,118 96,124 130,126 C 164,128 182,142 182,166 C 182,194 152,206 118,206 C 88,206 64,194 58,170"/>
    <path d="M 182,76 C 198,68 204,52 192,46 C 182,42 174,52 180,62"/>
    <path d="M 58,170 C 42,178 36,194 48,200 C 58,204 66,194 60,184"/>
  </g>
  <g fill="#ffffff">
    <rect x="92" y="50" width="14" height="132" rx="3"/>
    <path d="M 106,116 C 110,108 120,102 134,102 C 156,102 172,118 172,148 C 172,178 156,194 134,194 C 120,194 110,188 106,180 Z" fill="#ffffff"/>
    <circle cx="134" cy="148" r="16" fill="#080808"/>
  </g>
</svg>
